<svg xmlns="http://www.w3.org/2000/svg" viewBox="0 0 512 512">
  <rect width="512" height="512" rx="112" fill="#fdfaf4"/>
  <rect x="56" y="188" width="400" height="268" rx="72" fill="#f2c14e" stroke="#20313a" stroke-width="24"/>
  <circle cx="150" cy="196" r="74" fill="#f0873a"/>
  <path d="M96 150 L112 74 L168 128 Z" fill="#f0873a"/>
  <path d="M204 150 L188 74 L132 128 Z" fill="#f0873a"/>
  <circle cx="126" cy="188" r="13" fill="#2b2b2b"/>
  <circle cx="174" cy="188" r="13" fill="#2b2b2b"/>
  <circle cx="362" cy="196" r="74" fill="#fbfaf7" stroke="#20313a" stroke-width="10"/>
  <circle cx="312" cy="140" r="30" fill="#2b2b2b"/>
  <circle cx="412" cy="140" r="30" fill="#2b2b2b"/>
  <ellipse cx="338" cy="188" rx="20" ry="26" fill="#2b2b2b"/>
  <ellipse cx="386" cy="188" rx="20" ry="26" fill="#2b2b2b"/>
  <path d="M256 268 l26 58 64 6 -48 44 14 62 -56 -34 -56 34 14 -62 -48 -44 64 -6 Z" fill="#fdfaf4"/>
</svg>
